#!OML:ASF F:\VICON\USERDATA\INSTALL\rory3\rory3.ASF
:FULLY-SPECIFIED
:DEGREES
1553
root 0.418587 15.1828 -1.82015 -6.89562 0.0868214 -0.262619
lowerback 16.5447 0.771281 -2.06788
upperback 10.6432 0.743837 -0.727967
thorax 2.05684 0.295659 0.293054
lowerneck 3.83989 -5.66165 -15.7687
upperneck 14.3023 -9.79035 17.5835
head 5.21202 -4.90701 7.89295
rclavicle -3.18055e-015 -1.07344e-014
rhumerus 68.097 8.53743 -460.704
rradius 9.88474
rwrist 365.3
rhand -8.57379 8.9156
rfingers 7.12502
rthumb 17.3567 -20.3294
lclavicle -3.18055e-015 -1.07344e-014
lhumerus 65.5273 -2.78346 117.913
lradius 11.9825
lwrist 31.1483
lhand -12.8534 36.2694
lfingers 7.12502
lthumb 13.2345 65.8292
rfemur -16.7287 5.22742 15.6152
rtibia 45.5326
rfoot -17.3814 -8.34098
rtoes -20.6118
lfemur -16.1943 -2.74167 -16.3938
ltibia 43.3686
lfoot -14.8875 -0.928834
ltoes -13.7559
1554
root 0.419408 15.1859 -1.80372 -6.91881 0.013362 -0.238138
lowerback 16.3367 0.756327 -2.11965
upperback 10.5053 0.720586 -0.736532
thorax 2.01561 0.282474 0.318065
lowerneck 3.59608 -5.68695 -15.8532
upperneck 14.3327 -9.80533 17.6042
head 5.27174 -4.9069 7.9059
rclavicle -1.64991e-014 -2.38542e-015
rhumerus 68.4017 8.47986 -461.132
rradius 9.9666
rwrist 365.959
rhand -8.53886 9.0282
rfingers 7.12502
rthumb 17.3903 -20.2139
lclavicle -1.64991e-014 -2.38542e-015
lhumerus 65.7408 -2.74749 118.312
lradius 12.3634
lwrist 30.6854
lhand -13.3027 36.3039
lfingers 7.12502
lthumb 12.8014 65.8914
rfemur -16.6161 5.28719 15.6057
rtibia 45.4626
rfoot -17.3572 -8.42203
rtoes -20.5696
lfemur -16.0356 -2.70878 -16.4238
ltibia 43.286
lfoot -14.9068 -0.890518
ltoes -13.6157
1555
root 0.421102 15.189 -1.7841 -6.99097 -0.0634303 -0.306937
lowerback 16.1793 0.734144 -2.03287
upperback 10.3557 0.70393 -0.727578
thorax 1.93608 0.2792 0.282012
lowerneck 3.25604 -5.68254 -15.8827
upperneck 14.5033 -9.76829 17.5197
head 5.37427 -4.87658 7.8758
rclavicle 5.96354e-016 -5.56597e-015
rhumerus 68.6362 8.40838 -461.567
rradius 10.068
rwrist 366.634
rhand -8.41338 9.09144
rfingers 7.12502
rthumb 17.5111 -20.1399
lclavicle 5.96354e-016 -5.56597e-015
lhumerus 66.0931 -3.15172 117.473
lradius 12.3338
lwrist 31.6329
lhand -14.6423 35.999
lfingers 7.12502
lthumb 11.5097 65.663
rfemur -16.385 5.34259 15.7038
rtibia 45.3843
rfoot -17.3396 -8.35741
rtoes -19.9133
lfemur -15.8067 -2.68654 -16.355
ltibia 43.215
lfoot -15.0392 -0.898276
ltoes -13.3843
1556
root 0.422228 15.1915 -1.76486 -7.03935 -0.0787675 -0.293838
lowerback 16.0202 0.711845 -1.99635
upperback 10.1898 0.680737 -0.747853
thorax 1.84064 0.271465 0.244414
lowerneck 2.90011 -5.62388 -15.9265
upperneck 14.6159 -9.65243 17.4783
head 5.44998 -4.8069 7.868
rclavicle 7.95139e-016 8.34896e-015
rhumerus 69.0026 8.76657 -460.462
rradius 10.4613
rwrist 365.606
rhand -8.217 8.71277
rfingers 7.12502
rthumb 17.7 -20.5016
lclavicle 7.95139e-016 8.34896e-015
lhumerus 66.6037 -3.98536 115.513
lradius 12.1117
lwrist 33.7269
lhand -15.3883 35.4514
lfingers 7.12502
lthumb 10.7902 65.1543
rfemur -16.1475 5.37603 15.6971
rtibia 45.3255
rfoot -17.3828 -8.09537
rtoes -18.6673
lfemur -15.5995 -2.7091 -16.3845
ltibia 43.1065
lfoot -15.1238 -0.839679
ltoes -13.7141
1557
root 0.421983 15.1947 -1.7487 -7.01995 -0.0423772 -0.253134
lowerback 15.775 0.679774 -2.04205
upperback 10.0529 0.637653 -0.749341
thorax 1.82133 0.24861 0.276371
lowerneck 2.70714 -5.59531 -15.966
upperneck 14.4918 -9.56954 17.4314
head 5.43093 -4.76312 7.8556
rclavicle -8.34896e-015 -4.37326e-015
rhumerus 69.595 9.46662 -458.164
rradius 10.9861
rwrist 363.33
rhand -8.07001 8.26448
rfingers 7.12502
rthumb 17.8415 -20.9371
lclavicle -8.34896e-015 -4.37326e-015
lhumerus 67.1214 -4.63585 114.055
lradius 12.0627
lwrist 35.145
lhand -15.5077 35.0114
lfingers 7.12502
lthumb 10.6751 64.7202
rfemur -16.0483 5.35725 15.6547
rtibia 45.2533
rfoot -17.4768 -8.08009
rtoes -18.818
lfemur -15.483 -2.7627 -16.4409
ltibia 42.969
lfoot -15.1279 -0.801578
ltoes -14.1434
1558
root 0.42268 15.2004 -1.7313 -7.03205 -0.0338702 -0.0797733
lowerback 15.5504 0.676307 -2.23337
upperback 9.92504 0.61377 -0.775523
thorax 1.80096 0.229459 0.361363
lowerneck 2.41493 -5.62769 -16.0471
upperneck 14.5695 -9.57973 17.3763
head 5.50993 -4.76077 7.8416
rclavicle 2.98177e-015 -1.03368e-014
rhumerus 70.1349 9.89986 -456.637
rradius 11.3449
rwrist 361.707
rhand -7.83296 8.20017
rfingers 7.12502
rthumb 18.0696 -20.9805
lclavicle 2.98177e-015 -1.03368e-014
lhumerus 67.554 -5.07424 112.974
lradius 12.2041
lwrist 36.2537
lhand -15.6386 34.875
lfingers 7.12502
lthumb 10.5488 64.5903
rfemur -15.9786 5.33504 15.4671
rtibia 45.1675
rfoot -17.5465 -8.35792
rtoes -20.2826
lfemur -15.2914 -2.81319 -16.6518
ltibia 42.8093
lfoot -15.1703 -0.766583
ltoes -14.0842
1559
root 0.424838 15.2056 -1.71256 -7.06999 -0.0631103 0.0642526
lowerback 15.3433 0.671897 -2.3653
upperback 9.77631 0.595273 -0.81266
thorax 1.74978 0.216573 0.400488
lowerneck 2.39512 -5.6244 -16.2013
upperneck 14.4446 -9.56678 17.4348
head 5.48326 -4.76093 7.88674
rclavicle -1.19271e-015 8.34896e-015
rhumerus 70.5469 10.1707 -455.598
rradius 11.694
rwrist 360.554
rhand -7.54666 8.04485
rfingers 7.12502
rthumb 18.345 -21.1101
lclavicle -1.19271e-015 8.34896e-015
lhumerus 67.9805 -5.61388 111.176
lradius 12.4615
lwrist 38.3932
lhand -16.2101 34.5648
lfingers 7.12502
lthumb 9.99744 64.3074
rfemur -15.8296 5.34426 15.3083
rtibia 45.05
rfoot -17.5287 -8.47793
rtoes -20.9141
lfemur -15.0698 -2.80802 -16.8381
ltibia 42.6704
lfoot -15.2164 -0.718107
ltoes -14.0649
1560
root 0.425281 15.2099 -1.69513 -7.08502 -0.121242 -0.0257236
lowerback 15.1402 0.649374 -2.29167
upperback 9.59388 0.577134 -0.781754
thorax 1.66063 0.211572 0.395064
lowerneck 2.58634 -5.60428 -16.3545
upperneck 14.068 -9.53488 17.5328
head 5.34109 -4.76205 7.94867
rclavicle 5.36719e-015 -7.95139e-015
rhumerus 70.8713 10.5183 -454.243
rradius 12.1791
rwrist 359.359
rhand -7.63223 7.64708
rfingers 7.12502
rthumb 18.2627 -21.5156
lclavicle 5.36719e-015 -7.95139e-015
lhumerus 68.2425 -5.96928 110.126
lradius 12.8053
lwrist 39.7034
lhand -16.9153 34.1059
lfingers 7.12502
lthumb 9.31706 63.88
rfemur -15.6735 5.41572 15.4363
rtibia 44.9138
rfoot -17.5216 -8.548
rtoes -21.0365
lfemur -14.9141 -2.77899 -16.7349
ltibia 42.574
lfoot -15.2144 -0.720001
ltoes -13.7208
1561
root 0.425732 15.214 -1.67824 -7.11156 -0.135524 -0.213086
lowerback 14.9758 0.593704 -2.12685
upperback 9.4161 0.525277 -0.725063
thorax 1.55743 0.192856 0.369425
lowerneck 2.61801 -5.63849 -16.547
upperneck 13.9076 -9.58377 17.6415
head 5.31042 -4.7949 8.01447
rclavicle 2.88238e-015 4.37326e-015
rhumerus 71.1423 10.7318 -453.739
rradius 12.411
rwrist 359.03
rhand -7.83029 7.62323
rfingers 7.12502
rthumb 18.0721 -21.5572
lclavicle 2.88238e-015 4.37326e-015
lhumerus 68.4286 -6.01064 110.459
lradius 13.0617
lwrist 39.2555
lhand -16.9373 34.198
lfingers 7.12502
lthumb 9.29586 63.9731
rfemur -15.4826 5.46764 15.6753
rtibia 44.7692
rfoot -17.5523 -8.60197
rtoes -20.9358
lfemur -14.7901 -2.80075 -16.5267
ltibia 42.5256
lfoot -15.2495 -0.727309
ltoes -13.6536
1562
root 0.4258 15.2159 -1.66236 -7.127 -0.132191 -0.25944
lowerback 14.82 0.552331 -2.1019
upperback 9.24563 0.475258 -0.711989
thorax 1.45797 0.170166 0.376395
lowerneck 2.73345 -5.63682 -16.4633
upperneck 13.5927 -9.54311 17.4892
head 5.17708 -4.785 7.94682
rclavicle 1.88845e-015 7.55382e-015
rhumerus 71.399 10.7194 -454.272
rradius 12.3936
rwrist 359.534
rhand -7.75416 7.9564
rfingers 7.12502
rthumb 18.1454 -21.2172
lclavicle 1.88845e-015 7.55382e-015
lhumerus 68.6559 -6.05266 110.61
lradius 13.265
lwrist 38.6628
lhand -16.4183 34.3993
lfingers 7.12502
lthumb 9.79664 64.1514
rfemur -15.3222 5.50939 15.7437
rtibia 44.638
rfoot -17.5156 -8.68084
rtoes -20.8777
lfemur -14.696 -2.81841 -16.4801
ltibia 42.5066
lfoot -15.3254 -0.755742
ltoes -13.6823
1563
root 0.425578 15.2197 -1.64864 -7.13419 -0.162255 -0.340227
lowerback 14.6773 0.530955 -2.05702
upperback 9.06781 0.453323 -0.671927
thorax 1.34339 0.161746 0.396467
lowerneck 2.829 -5.61739 -16.3811
upperneck 13.206 -9.45884 17.2717
head 5.01567 -4.75549 7.85876
rclavicle 9.93923e-016 -7.55382e-015
rhumerus 71.6369 10.6451 -454.822
rradius 12.2891
rwrist 360.112
rhand -7.82724 8.36621
rfingers 7.12502
rthumb 18.0751 -20.8139
lclavicle 9.93923e-016 -7.55382e-015
lhumerus 68.8305 -6.0465 110.71
lradius 13.5031
lwrist 38.0008
lhand -15.6514 34.1611
lfingers 7.12502
lthumb 10.5364 63.877
rfemur -15.1974 5.59134 15.8518
rtibia 44.5206
rfoot -17.5274 -8.71713
rtoes -20.6007
lfemur -14.6055 -2.83488 -16.3917
ltibia 42.4814
lfoot -15.3577 -0.733735
ltoes -13.5537
1564
root 0.425175 15.2228 -1.63374 -7.14759 -0.177267 -0.432375
lowerback 14.5056 0.516062 -1.9754
upperback 8.89843 0.44528 -0.630287
thorax 1.25325 0.161491 0.39583
lowerneck 2.95263 -5.66351 -16.5585
upperneck 12.8195 -9.4946 17.2548
head 4.89329 -4.79064 7.87835
rclavicle 1.47101e-014 -5.96354e-015
rhumerus 71.7528 10.3411 -456.092
rradius 12.063
rwrist 361.496
rhand -8.00532 8.84054
rfingers 7.12502
rthumb 17.9037 -20.3554
lclavicle 1.47101e-014 -5.96354e-015
lhumerus 69.0582 -6.13961 110.671
lradius 13.6565
lwrist 37.8709
lhand -15.4181 34.2529
lfingers 7.12502
lthumb 10.7615 63.9572
rfemur -15.07 5.6844 15.9825
rtibia 44.4381
rfoot -17.5583 -8.80626
rtoes -20.8934
lfemur -14.5043 -2.84671 -16.288
ltibia 42.4446
lfoot -15.4065 -0.723185
ltoes -13.8763
1565
root 0.426515 15.2263 -1.61399 -7.17692 -0.168186 -0.455563
lowerback 14.2617 0.485939 -1.94452
upperback 8.75226 0.413398 -0.625763
thorax 1.22706 0.147587 0.388497
lowerneck 3.0603 -5.68212 -16.6354
upperneck 12.4623 -9.50042 17.2803
head 4.77365 -4.80386 7.89793
rclavicle 4.67144e-015 7.55382e-015
rhumerus 71.8209 9.96886 -457.988
rradius 11.8494
rwrist 363.292
rhand -7.97695 9.03714
rfingers 7.12502
rthumb 17.931 -20.1563
lclavicle 4.67144e-015 7.55382e-015
lhumerus 69.2364 -6.83742 108.34
lradius 14.5764
lwrist 40.3699
lhand -16.3363 35.4796
lfingers 7.12502
lthumb 9.87573 65.228
rfemur -14.874 5.69637 16.0124
rtibia 44.3799
rfoot -17.6367 -8.70245
rtoes -20.2295
lfemur -14.3492 -2.87909 -16.282
ltibia 42.392
lfoot -15.5101 -0.704524
ltoes -14.2501
1566
root 0.428206 15.2276 -1.59511 -7.18545 -0.149299 -0.430287
lowerback 14.0116 0.469678 -1.96394
upperback 8.59001 0.393907 -0.621687
thorax 1.18721 0.138202 0.407281
lowerneck 3.0701 -5.68094 -16.6702
upperneck 12.2361 -9.4821 17.3197
head 4.70424 -4.79745 7.91577
rclavicle -1.94809e-014 5.56597e-015
rhumerus 72.0825 9.93424 -458.301
rradius 11.8054
rwrist 363.275
rhand -7.95099 9.03688
rfingers 7.12502
rthumb 17.956 -20.1542
lclavicle -1.94809e-014 5.56597e-015
lhumerus 69.2658 -7.79639 104.825
lradius 16.2261
lwrist 43.9724
lhand -16.7777 36.6162
lfingers 7.12502
lthumb 9.44989 66.3843
rfemur -14.6795 5.70546 15.9817
rtibia 44.3324
rfoot -17.6502 -8.51928
rtoes -18.8989
lfemur -14.2205 -2.93887 -16.3376
ltibia 42.3244
lfoot -15.5894 -0.665255
ltoes -14.2388
1567
root 0.427347 15.2289 -1.57957 -7.16458 -0.167507 -0.36115
lowerback 13.7779 0.479846 -2.0554
upperback 8.3933 0.400039 -0.631819
thorax 1.10203 0.139913 0.448321
lowerneck 3.0048 -5.6829 -16.8292
upperneck 12.1802 -9.48795 17.4513
head 4.71321 -4.80092 7.9854
rclavicle -1.55052e-014 6.75868e-015
rhumerus 72.4174 10.0929 -457.372
rradius 11.8515
rwrist 362.183
rhand -8.22781 9.23948
rfingers 7.12502
rthumb 17.6896 -19.9759
lclavicle -1.55052e-014 6.75868e-015
lhumerus 69.4229 -7.70855 105.54
lradius 16.1978
lwrist 43.16
lhand -15.8117 35.9534
lfingers 7.12502
lthumb 10.3818 65.6771
rfemur -14.6118 5.78919 15.9231
rtibia 44.2726
rfoot -17.6524 -8.61169
rtoes -18.5548
lfemur -14.1228 -2.9184 -16.4121
ltibia 42.2316
lfoot -15.6093 -0.711692
ltoes -13.812
